/vscmnt/brussel_pixiu_data/_data_brussel/112/vsc11236/PredSimResults/SUBJ04mtu3D/weighted-trackIG/worker_01.mot
version=1
nRows=6
nColumns=50
inDegrees=yes
endheader
                time	         pelvis_tilt	         pelvis_list	     pelvis_rotation	           pelvis_tx	           pelvis_ty	           pelvis_tz	       hip_flexion_r	     hip_adduction_r	      hip_rotation_r	        knee_angle_r	       ankle_angle_r	         mtp_angle_r	       hip_flexion_l	     hip_adduction_l	      hip_rotation_l	        knee_angle_l	       ankle_angle_l	         mtp_angle_l	    lumbar_extension	      lumbar_bending	     lumbar_rotation	 ercspn_r/activation	 intobl_r/activation	 extobl_r/activation	    abd_r/activation	    add_r/activation	hamstrings_r/activation	bifemsh_r/activation	glut_max_r/activation	iliopsoas_r/activation	rect_fem_r/activation	  vasti_r/activation	gastroc_r/activation	 soleus_r/activation	tib_ant_r/activation	 ercspn_l/activation	 intobl_l/activation	 extobl_l/activation	    abd_l/activation	    add_l/activation	hamstrings_l/activation	bifemsh_l/activation	glut_max_l/activation	iliopsoas_l/activation	rect_fem_l/activation	  vasti_l/activation	gastroc_l/activation	 soleus_l/activation	tib_ant_l/activation	
          0.68683578	         -5.27536991	          4.90946736	        -12.25450604	          0.61815221	          0.88401263	          0.02019666	         -8.73215446	         -4.60624368	         14.51698044	         -8.88530682	         12.09386399	         23.87904400	         24.34228209	          0.55133682	         -4.98083353	          2.33384703	          5.21675979	          0.21352391	         -3.20307572	         -1.92569289	          1.15453039	          0.03300085	          0.00999999	          0.00999999	          0.08329662	          0.00999999	          0.01815556	          0.13354807	          0.06394293	          0.29985921	          0.01000000	          0.00999999	          0.29147235	          0.27453498	          0.01333358	          0.09444906	          0.16856196	          0.01955370	          0.02270624	          0.10020708	          0.01362415	          0.01000001	          0.00999999	          0.05384813	          0.01338067	          0.02519186	          0.00999999	          0.00999999	          0.26661688	
          0.70057250	         -5.39173743	          4.77861584	        -12.11443890	          0.63309237	          0.88217069	          0.01914829	         -8.96903803	         -4.45323945	         13.68711604	        -10.17181601	         11.81733542	         25.54685164	         23.93614066	          0.81415644	         -3.74622324	          1.80006891	          4.87073821	          0.21758026	         -2.92528519	         -2.19461159	          1.41093966	          0.05879264	          0.00999999	          0.00999999	          0.06777895	          0.02042331	          0.01477347	          0.10866885	          0.05203075	          0.27310049	          0.01000000	          0.00999999	          0.26775227	          0.26729080	          0.01084961	          0.07685377	          0.16416722	          0.01591096	          0.01847621	          0.12119428	          0.01915876	          0.01000004	          0.01000015	          0.04381654	          0.01088794	          0.02049876	          0.01816068	          0.01545222	          0.27022041	
          0.71430922	         -5.49111582	          4.64200535	        -11.90382486	          0.64840673	          0.88048583	          0.01801067	         -9.14680210	         -4.27914916	         12.82405016	        -11.64904636	         11.41859453	         27.24361934	         23.39793508	          1.07484416	         -2.54881995	          1.26707665	          4.45385848	          0.21198222	         -2.63134980	         -2.48242596	          1.65893889	          0.08101025	          0.00999999	          0.00999999	          0.05515213	          0.03368566	          0.01202128	          0.08842449	          0.04233773	          0.24140994	          0.01000003	          0.00999999	          0.24217430	          0.25239468	          0.00999999	          0.06895471	          0.17015543	          0.01294684	          0.03173866	          0.09861650	          0.02607656	          0.06609131	          0.01976062	          0.03565378	          0.00999999	          0.01667997	          0.01477746	          0.01257356	          0.30676752	
          0.72804593	         -5.57441023	          4.50493475	        -11.61474145	          0.66389987	          0.87916995	          0.01676990	         -9.19737019	         -4.07713074	         11.91643399	        -13.39932548	         10.84036802	         28.95971741	         22.75841992	          1.35233270	         -1.42875033	          0.90993984	          3.92294370	          0.19789158	         -2.34020256	         -2.79491897	          1.89662093	          0.10409320	          0.00999999	          0.00999999	          0.04487761	          0.03434780	          0.01116607	          0.07195153	          0.03445046	          0.20607764	          0.01000014	          0.01000000	          0.19841285	          0.23178603	          0.00999999	          0.06991431	          0.14585547	          0.01053492	          0.05718544	          0.08024483	          0.02961776	          0.05377890	          0.03126254	          0.02901169	          0.01000000	          0.01357259	          0.01202451	          0.01023118	          0.33258048	
          0.74178265	         -5.64194966	          4.36804908	        -11.24895126	          0.67942395	          0.87839021	          0.01544356	         -9.08621935	         -3.84551587	         10.94429535	        -15.44595941	         10.03939956	         30.62804292	         22.06131079	          1.64582453	         -0.39308756	          0.61723880	          3.45948930	          0.18332105	         -2.06252438	         -3.13184287	          2.12127258	          0.12009332	          0.00999999	          0.00999999	          0.03651718	          0.03674137	          0.01359080	          0.05854739	          0.02803254	          0.18185277	          0.01000001	          0.01000000	          0.16144970	          0.19391577	          0.00999999	          0.06484959	          0.11868346	          0.00999999	          0.07842769	          0.06529570	          0.03511117	          0.04376022	          0.03560074	          0.02360698	          0.01000000	          0.01436827	          0.01000000	          0.00999999	          0.35387475	
          0.75551936	         -5.69409158	          4.22715775	        -10.81211740	          0.69486770	          0.87820937	          0.01405139	         -8.79587886	         -3.58394023	          9.88923040	        -17.79298091	          9.02659679	         32.10503156	         21.32602750	          1.94356417	          0.55731757	          0.34939101	          3.12014119	          0.17019500	         -1.80594892	         -3.48469919	          2.32899622	          0.13113935	          0.00999999	          0.00999999	          0.02971424	          0.04524325	          0.01990733	          0.04764036	          0.02281024	          0.16469465	          0.01000000	          0.00999999	          0.13137257	          0.15779041	          0.00999999	          0.05798276	          0.09657343	          0.00999999	          0.09877758	          0.06320442	          0.03949674	          0.03560796	          0.03110176	          0.01920914	          0.00999999	          0.01528296	          0.01000000	          0.00999999	          0.36372091	
